HIERARCHY
ROOT ui
{
	 OFFSET 0 0 0
	 CHANNELS 3 XPosition YPosition Z Position
	 EndSite
	 {
	 OFFSET 0 -1 0
	 }
}
ROOT li
{
	 OFFSET 0 0 0
	 CHANNELS 3 XPosition YPosition Z Position
	 EndSite
	 {
	 OFFSET 0 -1 0
	 }
}
ROOT ul
{
	 OFFSET 0 0 0
	 CHANNELS 3 XPosition YPosition Z Position
	 EndSite
	 {
	 OFFSET 0 -1 0
	 }
}
ROOT ll
{
	 OFFSET 0 0 0
	 CHANNELS 3 XPosition YPosition Z Position
	 EndSite
	 {
	 OFFSET 0 -1 0
	 }
}
ROOT tt
{
	 OFFSET 0 0 0
	 CHANNELS 3 XPosition YPosition Z Position
	 EndSite
	 {
	 OFFSET 0 -1 0
	 }
}
ROOT tb
{
	 OFFSET 0 0 0
	 CHANNELS 3 XPosition YPosition Z Position
	 EndSite
	 {
	 OFFSET 0 -1 0
	 }
}
ROOT td
{
	 OFFSET 0 0 0
	 CHANNELS 3 XPosition YPosition Z Position
	 EndSite
	 {
	 OFFSET 0 -1 0
	 }
}
ROOT v
{
	 OFFSET 0 0 0
	 CHANNELS 3 XPosition YPosition Z Position
	 EndSite
	 {
	 OFFSET 0 -1 0
	 }
}
ROOT bn
{
	 OFFSET 0 0 0
	 CHANNELS 3 XPosition YPosition Z Position
	 EndSite
	 {
	 OFFSET 0 -1 0
	 }
}
MOTION
Frames: 19
Frame Time: 0.002
0.016100580215454102	-8.45479965209961E-5	0		0.6815008544921874	-2.8732841796875	0		-1.0027171020507812	0.2890789489746094	0		-0.21431739807128905	-3.39303662109375	0		2.189634765625	-1.46152734375	0		3.41009130859375	-0.5645548095703125	0		4.746677734375	0.003656722068786621	0		5.95381103515625	0.4100117492675781	0		-0.3619679870605469	5.92318408203125	0		
-0.005766660213470459	0.004160017013549805	0		0.6816068725585938	-2.873357421875	0		-1.002649658203125	0.28898504638671874	0		-0.18125318908691407	-3.3966103515625	0		2.212528076171875	-1.4749222412109375	0		3.42191552734375	-0.5817711181640625	0		4.76161376953125	-0.005588672161102295	0		5.9490068359375	0.4326639404296875	0		-0.39027777099609373	5.902515625	0		
-0.008716010093688964	0.0011208970546722412	0		0.679706787109375	-2.8754033203125	0		-1.0066171264648438	0.28494891357421875	0		-0.1821322784423828	-3.397681396484375	0		2.210596435546875	-1.477949462890625	0		3.4418818359375	-0.5911094360351562	0		4.76861865234375	-0.011718504905700684	0		5.95949658203125	0.38728314208984377	0		-0.3902537841796875	5.90242724609375	0		
-0.00860434913635254	0.0010362509489059448	0		0.7168338012695312	-2.87702783203125	0		-1.0146116943359376	0.2779716796875	0		-0.16289337158203124	-3.39205029296875	0		2.22547216796875	-1.4952281494140625	0		3.438941650390625	-0.595108154296875	0		4.783595703125	-0.020967565536499023	0		5.94915380859375	0.4326197204589844	0		-0.25691580200195313	5.921365234375	0		
-0.01152535343170166	-0.0020032119750976562	0		0.6789807739257813	-2.87754052734375	0		-0.9985972900390625	0.2706393127441406	0		-0.24264674377441406	-3.38595263671875	0		2.242404052734375	-1.50953564453125	0		3.44493798828125	-0.60423876953125	0		4.78860009765625	-0.029067344665527343	0		5.95966455078125	0.38723919677734375	0		-0.3608672485351562	5.9218173828125	0		
-0.008349883079528808	8.692830204963684E-4	0		0.7071443481445312	-2.878029052734375	0		-0.9825597534179688	0.26430841064453126	0		-0.17351100158691407	-3.38905859375	0		2.248523681640625	-1.5116793212890625	0		3.49401220703125	-0.6090036010742188	0		4.807685546875	-0.03237206268310547	0		5.95975830078125	0.38722314453125	0		-0.35786788940429687	5.9176865234375	0		
-0.002108180046081543	0.007699448108673096	0		0.6834108276367188	-2.871746337890625	0		-0.9824241333007813	0.2642157287597656	0		-0.19700167846679686	-3.366788818359375	0		2.274531005859375	-1.522114501953125	0		3.4880263671875	-0.6179502563476562	0		4.8268076171875	-0.033672542572021485	0		5.95428857421875	0.40990676879882815	0		-0.38905130004882815	5.90106201171875	0		
0.01691866874694824	-6.576979756355286E-4	0		0.7293991088867188	-2.88549267578125	0		-0.9913828735351562	0.25725894165039065	0		-0.19885394287109376	-3.3698388671875	0		2.28360888671875	-1.5282940673828125	0		3.494048095703125	-0.6270690307617187	0		4.8328662109375	-0.03977388763427735	0		5.94953857421875	0.43257650756835936	0		-0.3889824523925781	5.90097900390625	0		
-0.007907784938812256	6.364099979400635E-4	0		0.6797060546875	-2.877820068359375	0		-0.9912305908203125	0.25716961669921873	0		-0.19761920166015626	-3.367931640625	0		2.3017705078125	-1.529600830078125	0		3.49421337890625	-0.6270927734375	0		4.8419921875	-0.041910568237304685	0		5.9600732421875	0.38724038696289065	0		-0.25561737060546874	5.9199345703125	0		
0.014195487022399903	-0.0037602839469909667	0		0.7048572998046875	-2.882249267578125	0		-0.9792189331054687	0.24690440368652344	0		-0.25822933959960936	-3.356110107421875	0		2.296681396484375	-1.548559326171875	0		3.527237548828125	-0.637592041015625	0		4.8570234375	-0.05112214660644531	0		5.96019091796875	0.38728842163085936	0		-0.38786199951171874	5.8998046875	0		
-0.007571467876434326	4.918720126152039E-4	0		0.6832057495117188	-2.873984130859375	0		-1.04392724609375	0.25576937866210936	0		-0.2091294708251953	-3.36590673828125	0		2.333011962890625	-1.5401163330078125	0		3.524628173828125	-0.6235516357421875	0		4.8612841796875	-0.045157745361328126	0		5.96693115234375	0.42000564575195315	0		-0.2545114440917969	5.91876611328125	0		
0.017587646484375	-9.457389712333679E-4	0		0.7333397827148438	-2.8817724609375	0		-0.9788811645507812	0.24672109985351562	0		-0.2506215972900391	-3.348366455078125	0		2.32607763671875	-1.550029296875	0		3.544669921875	-0.6338339233398438	0		4.87046044921875	-0.0452489013671875	0		5.960439453125	0.38748416137695313	0		-0.3877646484375	5.899646484375	0		
-0.03221396636962891	7.188000082969665E-4	0		0.6708064575195313	-2.866899658203125	0		-1.0517015380859376	0.24769670104980468	0		-0.1983016357421875	-3.345205322265625	0		2.352044921875	-1.567416259765625	0		3.54793798828125	-0.6288538208007812	0		4.86164111328125	-0.04505717849731445	0		5.9549970703125	0.4103294067382813	0		-0.38774237060546873	5.8995673828125	0		
0.01794350242614746	-0.0010817129611968995	0		0.7328300170898437	-2.88385302734375	0		-1.0515316162109376	0.24759693908691408	0		-0.2480320281982422	-3.34554736328125	0		2.343358642578125	-1.5612818603515626	0		3.54200341796875	-0.637725341796875	0		4.88080322265625	-0.04625565719604492	0		5.95026708984375	0.4331906127929688	0		-0.25445062255859374	5.9185390625	0		
-0.03186112022399902	5.822809934616089E-4	0		0.6822125854492187	-2.876150390625	0		-1.0335855712890625	0.23223289489746093	0		-0.24468313598632813	-3.341666748046875	0		2.385408203125	-1.5738795166015624	0		3.53434765625	-0.6275540161132812	0		4.884833984375	-0.05621118545532226	0		5.96030322265625	0.42096987915039064	0		-0.38581582641601564	5.89637890625	0		
0.021350757598876953	0.0027438158988952635	0		0.6875850830078125	-2.870262451171875	0		-1.0193786010742187	0.2349233856201172	0		-0.24808766174316407	-3.32168505859375	0		2.387686767578125	-1.5708812255859375	0		3.601509765625	-0.6304570922851562	0		4.9021826171875	-0.04433514404296875	0		5.97122802734375	0.4381806640625	0		-0.3565831604003906	5.9158740234375	0		
0.0014539190530776978	-0.0020281009674072265	0		0.7128375854492187	-2.873658935546875	0		-1.0332572021484374	0.23201885986328125	0		-0.24675495910644532	-3.3207744140625	0		2.41499853515625	-1.566233642578125	0		3.558904296875	-0.6167412109375	0		4.90647412109375	-0.036244503021240236	0		5.96282421875	0.44401345825195315	0		-0.3859541015625	5.89621826171875	0		
0.018641233444213867	-0.0013366379737854003	0		0.7100796508789062	-2.878642822265625	0		-1.0271668701171874	0.2268198699951172	0		-0.25724435424804687	-3.30869091796875	0		2.423132568359375	-1.5742938232421875	0		3.588903076171875	-0.6310634765625	0		4.916634765625	-0.03721330261230469	0		5.96780517578125	0.4217462158203125	0		-0.38606597900390627	5.89613671875	0		
-0.031164619445800783	3.2367300987243654E-4	0		0.7353646240234375	-2.882025634765625	0		-1.0320618896484375	0.2227751922607422	0		-0.2538472137451172	-3.305809814453125	0		2.423392578125	-1.5742235107421876	0		3.592169189453125	-0.6269735717773437	0		4.9168115234375	-0.037007583618164065	0		5.9613154296875	0.38956201171875	0		-0.2538939666748047	5.9171494140625	0		
